<svg width="856px" height="856px" viewBox="0 0 856 856" version="1.1" xmlns="http://www.w3.org/2000/svg" xmlns:xlink="http://www.w3.org/1999/xlink">
    <g id="Page-1" stroke="none" stroke-width="1" fill="none" fill-rule="evenodd">
        <g fill-rule="nonzero" class="path">
            <path d="M855.35,712.875 C855.35,791.527 791.579,855.297 712.929,855.297 L143.226,855.297 C64.571,855.297 0.799,791.525 0.799,712.875 L0.799,143.175 C0.799,64.517 64.571,0.743 143.226,0.743 L712.93,0.743 C791.588,0.743 855.362,64.515 855.362,143.174 L855.352,712.875 L855.35,712.875 Z M330.621,460.356 L456.214,460.356 C456.214,430.828 442.291,413.532 442.291,413.532 L333.295,413.532 C335.885,360.039 338.205,291.382 339.034,265.882 L442.711,265.882 C442.711,265.882 442.15,222.011 430.62,222.011 L248.378,222.011 C248.378,222.011 259.349,164.637 273.972,139.311 C273.972,139.311 219.555,136.373 200.992,208.933 C182.43,281.493 154.588,325.363 151.636,333.379 C148.683,341.392 167.667,337.174 175.68,333.379 C183.695,329.582 219.974,316.503 230.52,265.883 L286.87,265.883 C287.63,297.965 289.86,396.28 289.157,413.532 L173.15,413.532 C156.7,425.342 151.214,460.356 151.214,460.356 L283.806,460.356 C278.276,496.971 268.567,544.169 254.989,569.191 C233.476,608.846 222.085,645.125 144.464,707.559 C144.464,707.559 131.807,716.839 171.04,713.465 C210.271,710.093 247.396,699.967 273.127,648.502 C286.505,621.746 300.34,587.805 311.133,553.381 L311.093,553.501 L420.353,679.296 C420.353,679.296 434.696,645.549 424.151,608.426 L343.157,517.728 L315.737,538.007 L315.706,538.106 C323.321,511.406 328.798,485.011 330.501,462.045 C330.543,461.492 330.585,460.926 330.622,460.356 L330.621,460.356 Z M482.366,212.73 L482.366,648.08 L528.136,648.08 L546.889,700.485 L626.217,648.08 L726.195,648.08 L726.195,212.73 L482.366,212.73 Z M679.09,601.253 L627.122,601.253 L562.305,644.07 L546.986,601.253 L530.81,601.253 L530.81,261.313 L679.09,261.313 L679.09,601.253 L679.09,601.253 Z" id="Shape"></path>
        </g>
    </g>
</svg>
